<!-- SVG version of the Dutch Learning logo -->
<svg width="512" height="512" viewBox="0 0 512 512" fill="none" xmlns="http://www.w3.org/2000/svg">
  <!-- Background circle -->
  <circle cx="256" cy="256" r="256" fill="#fefcf5"/>

  <!-- Book -->
  <path d="M80 320L80 400C80 415 92 427 107 427L405 427C420 427 432 415 432 400L432 320" stroke="#2c2c2c" stroke-width="8" fill="none"/>
  <path d="M80 320L432 320" stroke="#2c2c2c" stroke-width="8"/>
  <path d="M256 320L256 427" stroke="#2c2c2c" stroke-width="8"/>
  <path d="M80 300L80 320L432 320L432 300C432 285 420 273 405 273L107 273C92 273 80 285 80 300Z" fill="#ff8c00" stroke="#2c2c2c" stroke-width="4"/>

  <!-- Book pages -->
  <path d="M100 273L100 300L412 300L412 273" stroke="#2c2c2c" stroke-width="2" fill="white"/>
  <path d="M120 280L392 280" stroke="#2c2c2c" stroke-width="1"/>
  <path d="M120 290L392 290" stroke="#2c2c2c" stroke-width="1"/>

  <!-- EN Speech Bubble -->
  <rect x="100" y="120" width="120" height="80" rx="20" fill="#003d82" stroke="#2c2c2c" stroke-width="6"/>
  <path d="M140 200L140 220L160 200Z" fill="#003d82" stroke="#2c2c2c" stroke-width="4"/>
  <text x="160" y="175" fill="white" font-family="Arial, sans-serif" font-size="36" font-weight="bold" text-anchor="middle">EN</text>

  <!-- NL Speech Bubble -->
  <rect x="292" y="120" width="120" height="80" rx="20" fill="white" stroke="#2c2c2c" stroke-width="6"/>
  <!-- Dutch flag pattern in speech bubble -->
  <rect x="300" y="128" width="104" height="26" fill="#e53e3e"/>
  <rect x="300" y="154" width="104" height="26" fill="white"/>
  <rect x="300" y="180" width="104" height="12" fill="#003d82"/>
  <path d="M372 200L372 220L352 200Z" fill="white" stroke="#2c2c2c" stroke-width="4"/>
  <text x="352" y="175" fill="#2c2c2c" font-family="Arial, sans-serif" font-size="36" font-weight="bold" text-anchor="middle">NL</text>

  <!-- Title -->
  <text x="256" y="460" fill="#2c2c2c" font-family="Arial, sans-serif" font-size="48" font-weight="bold" text-anchor="middle">DUTCH</text>
  <text x="256" y="500" fill="#2c2c2c" font-family="Arial, sans-serif" font-size="32" font-weight="normal" text-anchor="middle">LEARNING</text>
</svg>
